<?xml version="1.0" encoding="UTF-8"?>
<svg xmlns="http://www.w3.org/2000/svg" xmlns:xlink="http://www.w3.org/1999/xlink" width="110px" height="110px" viewBox="0 0 110 110" version="1.1">
<g id="surface1">
<path style=" stroke:none;fill-rule:nonzero;fill:rgb(18.039216%,80.784314%,32.54902%);fill-opacity:1;" d="M 50.792969 0.285156 C 47.519531 0.578125 47.34375 0.925781 47.34375 8.125 L 47.34375 13.15625 L 42.835938 14.800781 C 40.324219 15.675781 36.695312 17.191406 34.765625 18.246094 L 31.253906 20.175781 L 26.632812 15.90625 L 22.007812 11.636719 L 19.199219 13.980469 C 17.621094 15.261719 15.34375 17.609375 14.054688 19.125 L 11.652344 21.933594 L 15.984375 26.554688 L 20.253906 31.175781 L 18.613281 34.394531 C 17.738281 36.152344 16.390625 39.78125 15.691406 42.40625 L 14.402344 47.152344 L 7.847656 47.378906 C 4.164062 47.5 1.007812 47.789062 0.773438 48.03125 C 0.0664062 48.667969 -0.222656 55.515625 0.191406 59.203125 L 0.597656 62.300781 L 7.558594 62.769531 L 14.582031 63.183594 L 15.164062 65.574219 C 16.332031 70.203125 17.621094 73.824219 18.96875 76.519531 L 20.308594 79.148438 L 15.863281 83.710938 L 11.480469 88.277344 L 16.390625 93.246094 C 19.082031 95.941406 21.542969 98.164062 21.777344 98.164062 C 22.066406 98.164062 24.234375 96.289062 26.632812 94.011719 L 30.902344 89.800781 L 35.171875 92.019531 C 37.515625 93.308594 41.140625 94.882812 43.246094 95.589844 L 47.046875 96.816406 L 47.402344 103.191406 C 47.632812 106.707031 47.808594 109.632812 47.867188 109.691406 C 47.867188 109.804688 51.027344 109.867188 54.890625 109.867188 L 61.792969 109.867188 L 62.140625 105.882812 C 62.382812 103.722656 62.554688 100.855469 62.554688 99.566406 L 62.554688 97.171875 L 66.238281 95.824219 C 68.230469 95.125 71.910156 93.480469 74.425781 92.203125 L 78.996094 89.914062 L 83.617188 94.128906 L 88.234375 98.285156 L 89.929688 97.050781 C 91.980469 95.648438 98.234375 88.980469 98.234375 88.21875 C 98.234375 87.980469 96.371094 85.878906 94.082031 83.59375 L 89.871094 79.441406 L 91.398438 76.050781 C 92.214844 74.242188 93.5625 70.492188 94.320312 67.742188 L 95.785156 62.769531 L 102.691406 62.476562 L 109.652344 62.183594 L 109.824219 55.105469 L 110 48.03125 L 105.140625 47.671875 C 102.457031 47.441406 99.234375 47.265625 97.886719 47.265625 L 95.554688 47.265625 L 94.554688 42.996094 C 93.96875 40.710938 92.679688 36.972656 91.691406 34.804688 L 89.871094 30.828125 L 93.035156 27.492188 C 94.789062 25.675781 96.71875 23.570312 97.363281 22.8125 L 98.476562 21.464844 L 93.851562 16.84375 C 91.273438 14.269531 88.820312 12.164062 88.410156 12.164062 C 87.941406 12.164062 85.71875 13.980469 83.382812 16.261719 L 79.167969 20.289062 L 74.253906 17.78125 C 71.503906 16.320312 67.8125 14.734375 66.003906 14.269531 L 62.730469 13.273438 L 62.4375 7.191406 C 62.257812 3.800781 61.964844 0.867188 61.792969 0.695312 C 61.324219 0.230469 54.304688 -0.0625 50.792969 0.285156 Z M 60.214844 8.1875 C 60.214844 11.167969 60.449219 13.917969 60.679688 14.269531 C 60.910156 14.617188 62.613281 15.382812 64.480469 15.90625 C 66.296875 16.433594 70.507812 18.246094 73.730469 19.886719 L 79.578125 22.867188 L 83.964844 18.539062 L 88.292969 14.269531 L 92.097656 18.011719 L 95.902344 21.761719 L 91.804688 25.914062 C 89.582031 28.191406 87.707031 30.359375 87.707031 30.765625 C 87.707031 31.175781 88.351562 32.761719 89.113281 34.28125 C 90.457031 37.03125 92.332031 42.40625 93.5625 47.089844 L 94.207031 49.605469 L 108.1875 49.605469 L 108.1875 52.058594 C 108.1875 53.460938 108.015625 55.921875 107.832031 57.617188 L 107.425781 60.664062 L 100.695312 60.839844 L 93.96875 61.015625 L 92.859375 65.402344 C 92.214844 67.800781 90.8125 71.953125 89.636719 74.644531 C 87.304688 80.144531 87.121094 79.324219 92.386719 84.882812 L 95.667969 88.339844 L 91.980469 91.84375 L 88.351562 95.414062 L 83.847656 91.203125 L 79.402344 87.050781 L 77.351562 88.277344 C 74.078125 90.324219 69.574219 92.375 64.890625 94.011719 L 60.503906 95.535156 L 60.328125 101.855469 C 60.15625 108.988281 60.851562 108.402344 53.660156 107.703125 L 49.679688 107.34375 L 49.679688 95.355469 L 45.46875 94.066406 C 43.132812 93.367188 38.796875 91.550781 35.875 89.976562 L 30.554688 87.164062 L 26.515625 91.203125 C 24.292969 93.421875 22.238281 95.242188 21.890625 95.242188 C 21.542969 95.242188 19.726562 93.664062 17.792969 91.730469 L 14.347656 88.21875 L 18.558594 83.953125 L 22.832031 79.671875 L 20.71875 75.285156 C 19.613281 72.894531 18.085938 68.617188 17.386719 65.808594 L 16.15625 60.78125 L 9.371094 60.605469 L 2.582031 60.433594 L 2.410156 54.992188 L 2.234375 49.605469 L 8.960938 49.605469 C 15.042969 49.605469 15.75 49.492188 16.332031 48.492188 C 16.625 47.847656 16.921875 46.859375 16.921875 46.210938 C 16.921875 44.515625 19.199219 38.023438 21.191406 33.925781 L 23.003906 30.300781 L 14.582031 21.761719 L 18.210938 18.191406 L 21.890625 14.5625 L 25.402344 17.898438 C 31.019531 23.28125 30.082031 23.109375 36.285156 19.886719 C 39.324219 18.304688 43.542969 16.550781 45.765625 15.964844 L 49.679688 14.914062 L 49.679688 2.800781 L 60.214844 2.800781 Z M 60.214844 8.1875 "/>
<path style=" stroke:none;fill-rule:nonzero;fill:rgb(18.039216%,80.784314%,32.54902%);fill-opacity:1;" d="M 48.863281 26.554688 C 39.09375 28.898438 31.253906 35.859375 27.679688 45.335938 C 26.335938 48.902344 26.164062 49.957031 26.402344 56.097656 C 26.574219 62.535156 26.691406 63.058594 28.792969 67.335938 C 34.351562 78.566406 44.652344 84.707031 56.882812 84.007812 C 73.902344 82.953125 86.246094 67.742188 83.730469 50.78125 C 81.980469 38.492188 72.851562 29.128906 60.328125 26.496094 C 55.179688 25.441406 53.425781 25.441406 48.863281 26.554688 Z M 63.078125 29.191406 C 64.480469 29.597656 65.714844 30.242188 65.886719 30.652344 C 66.003906 31.058594 64.425781 34.394531 62.382812 38.023438 L 58.574219 44.628906 L 54.597656 45.15625 C 51.257812 45.628906 50.324219 46.039062 48.449219 47.847656 C 46.988281 49.195312 45.996094 50.894531 45.527344 52.589844 L 44.824219 55.222656 L 36.929688 58.324219 C 32.597656 60.019531 28.914062 61.25 28.738281 61.015625 C 28.035156 60.308594 27.921875 53.460938 28.621094 50.015625 C 30.613281 39.65625 39.445312 30.707031 49.738281 28.539062 C 52.960938 27.902344 59.804688 28.191406 63.078125 29.191406 Z M 71.738281 33.925781 C 75.074219 36.789062 79.519531 42.347656 79.519531 43.578125 C 79.519531 43.820312 76.007812 45.394531 71.796875 47.089844 L 64.019531 50.128906 L 62.023438 48.203125 L 60.09375 46.269531 L 63.726562 39.894531 C 67.757812 32.875 68.285156 32.054688 69.046875 32.054688 C 69.34375 32.054688 70.507812 32.933594 71.738281 33.925781 Z M 81.214844 48.261719 C 82.152344 51.476562 81.980469 58.207031 80.980469 62.183594 C 79.109375 69.4375 73.496094 75.992188 66.175781 79.558594 C 62.4375 81.433594 61.964844 81.492188 55.238281 81.492188 C 49.269531 81.492188 47.695312 81.257812 44.882812 80.144531 C 43.015625 79.382812 41.488281 78.507812 41.488281 78.15625 C 41.488281 77.863281 43.542969 74.765625 46.058594 71.25 L 50.558594 64.933594 L 54.769531 64.757812 C 61.207031 64.40625 64.246094 61.597656 64.835938 55.457031 L 65.1875 51.886719 L 72.207031 49.019531 C 76.0625 47.5 79.519531 46.210938 79.925781 46.152344 C 80.34375 46.097656 80.925781 47.089844 81.214844 48.261719 Z M 60.621094 49.839844 C 62.3125 51.652344 62.554688 52.296875 62.554688 55.105469 C 62.554688 57.683594 62.257812 58.613281 61.09375 60.074219 C 56.699219 65.226562 48.277344 62.652344 47.519531 55.863281 C 46.929688 50.722656 50.558594 46.972656 55.769531 47.441406 C 58.226562 47.671875 58.980469 48.03125 60.621094 49.839844 Z M 47.101562 60.722656 L 48.980469 63.589844 L 44.351562 69.90625 C 41.785156 73.355469 39.386719 76.285156 38.921875 76.398438 C 37.335938 76.75 29.792969 66.6875 29.792969 64.230469 C 29.792969 63.644531 32.1875 62.417969 36.695312 60.605469 C 40.4375 59.085938 43.949219 57.855469 44.421875 57.855469 C 44.882812 57.855469 46.113281 59.144531 47.101562 60.722656 Z M 47.101562 60.722656 "/>
</g>
</svg>
